<svg width="1050" height="1024" viewBox="0 0 1050 1024" fill="none" xmlns="http://www.w3.org/2000/svg">
<path d="M1042.5 512C1042.5 790.451 810.986 1016.5 525 1016.5C239.014 1016.5 7.5 790.451 7.5 512C7.5 233.549 239.014 7.5 525 7.5C810.986 7.5 1042.5 233.549 1042.5 512Z" stroke="black" stroke-width="15"/>
<path d="M239.508 765.898C238.711 776.914 234.633 785.586 227.273 791.914C219.961 798.242 210.305 801.406 198.305 801.406C185.18 801.406 174.844 797 167.297 788.188C159.797 779.328 156.047 767.188 156.047 751.766V745.508C156.047 735.664 157.781 726.992 161.25 719.492C164.719 711.992 169.664 706.25 176.086 702.266C182.555 698.234 190.055 696.219 198.586 696.219C210.398 696.219 219.914 699.383 227.133 705.711C234.352 712.039 238.523 720.922 239.648 732.359H218.555C218.039 725.75 216.188 720.969 213 718.016C209.859 715.016 205.055 713.516 198.586 713.516C191.555 713.516 186.281 716.047 182.766 721.109C179.297 726.125 177.516 733.93 177.422 744.523V752.258C177.422 763.32 179.086 771.406 182.414 776.516C185.789 781.625 191.086 784.18 198.305 784.18C204.82 784.18 209.672 782.703 212.859 779.75C216.094 776.75 217.945 772.133 218.414 765.898H239.508ZM296.109 800C295.172 798.172 294.492 795.898 294.07 793.18C289.148 798.664 282.75 801.406 274.875 801.406C267.422 801.406 261.234 799.25 256.312 794.938C251.438 790.625 249 785.188 249 778.625C249 770.562 251.977 764.375 257.93 760.062C263.93 755.75 272.578 753.57 283.875 753.523H293.227V749.164C293.227 745.648 292.312 742.836 290.484 740.727C288.703 738.617 285.867 737.562 281.977 737.562C278.555 737.562 275.859 738.383 273.891 740.023C271.969 741.664 271.008 743.914 271.008 746.773H250.688C250.688 742.367 252.047 738.289 254.766 734.539C257.484 730.789 261.328 727.859 266.297 725.75C271.266 723.594 276.844 722.516 283.031 722.516C292.406 722.516 299.836 724.883 305.32 729.617C310.852 734.305 313.617 740.914 313.617 749.445V782.422C313.664 789.641 314.672 795.102 316.641 798.805V800H296.109ZM279.305 785.867C282.305 785.867 285.07 785.211 287.602 783.898C290.133 782.539 292.008 780.734 293.227 778.484V765.406H285.633C275.461 765.406 270.047 768.922 269.391 775.953L269.32 777.148C269.32 779.68 270.211 781.766 271.992 783.406C273.773 785.047 276.211 785.867 279.305 785.867ZM334.781 800V738.828H323.461V723.922H334.781V717.453C334.781 708.922 337.219 702.312 342.094 697.625C347.016 692.891 353.883 690.523 362.695 690.523C365.508 690.523 368.953 690.992 373.031 691.93L372.82 707.68C371.133 707.258 369.07 707.047 366.633 707.047C358.992 707.047 355.172 710.633 355.172 717.805V723.922H370.289V738.828H355.172V800H334.781ZM414.164 801.406C403.008 801.406 393.914 797.984 386.883 791.141C379.898 784.297 376.406 775.18 376.406 763.789V761.82C376.406 754.18 377.883 747.359 380.836 741.359C383.789 735.312 387.961 730.672 393.352 727.438C398.789 724.156 404.977 722.516 411.914 722.516C422.32 722.516 430.5 725.797 436.453 732.359C442.453 738.922 445.453 748.227 445.453 760.273V768.57H397.008C397.664 773.539 399.633 777.523 402.914 780.523C406.242 783.523 410.438 785.023 415.5 785.023C423.328 785.023 429.445 782.188 433.852 776.516L443.836 787.695C440.789 792.008 436.664 795.383 431.461 797.82C426.258 800.211 420.492 801.406 414.164 801.406ZM411.844 738.969C407.812 738.969 404.531 740.328 402 743.047C399.516 745.766 397.922 749.656 397.219 754.719H425.484V753.102C425.391 748.602 424.172 745.133 421.828 742.695C419.484 740.211 416.156 738.969 411.844 738.969ZM547.336 773.141C547.336 769.156 545.93 766.109 543.117 764C540.305 761.844 535.242 759.594 527.93 757.25C520.617 754.859 514.828 752.516 510.562 750.219C498.938 743.938 493.125 735.477 493.125 724.836C493.125 719.305 494.672 714.383 497.766 710.07C500.906 705.711 505.383 702.312 511.195 699.875C517.055 697.438 523.617 696.219 530.883 696.219C538.195 696.219 544.711 697.555 550.43 700.227C556.148 702.852 560.578 706.578 563.719 711.406C566.906 716.234 568.5 721.719 568.5 727.859H547.406C547.406 723.172 545.93 719.539 542.977 716.961C540.023 714.336 535.875 713.023 530.531 713.023C525.375 713.023 521.367 714.125 518.508 716.328C515.648 718.484 514.219 721.344 514.219 724.906C514.219 728.234 515.883 731.023 519.211 733.273C522.586 735.523 527.531 737.633 534.047 739.602C546.047 743.211 554.789 747.688 560.273 753.031C565.758 758.375 568.5 765.031 568.5 773C568.5 781.859 565.148 788.82 558.445 793.883C551.742 798.898 542.719 801.406 531.375 801.406C523.5 801.406 516.328 799.977 509.859 797.117C503.391 794.211 498.445 790.25 495.023 785.234C491.648 780.219 489.961 774.406 489.961 767.797H511.125C511.125 779.094 517.875 784.742 531.375 784.742C536.391 784.742 540.305 783.734 543.117 781.719C545.93 779.656 547.336 776.797 547.336 773.141ZM605.836 705.219V723.922H618.844V738.828H605.836V776.797C605.836 779.609 606.375 781.625 607.453 782.844C608.531 784.062 610.594 784.672 613.641 784.672C615.891 784.672 617.883 784.508 619.617 784.18V799.578C615.633 800.797 611.531 801.406 607.312 801.406C593.062 801.406 585.797 794.211 585.516 779.82V738.828H574.406V723.922H585.516V705.219H605.836ZM675.727 792.266C670.711 798.359 663.773 801.406 654.914 801.406C646.758 801.406 640.523 799.062 636.211 794.375C631.945 789.688 629.766 782.82 629.672 773.773V723.922H649.992V773.07C649.992 780.992 653.602 784.953 660.82 784.953C667.711 784.953 672.445 782.562 675.023 777.781V723.922H695.414V800H676.289L675.727 792.266ZM707.578 761.398C707.578 749.539 710.227 740.094 715.523 733.062C720.867 726.031 728.156 722.516 737.391 722.516C744.797 722.516 750.914 725.281 755.742 730.812V692H776.133V800H757.781L756.797 791.914C751.734 798.242 745.219 801.406 737.25 801.406C728.297 801.406 721.102 797.891 715.664 790.859C710.273 783.781 707.578 773.961 707.578 761.398ZM727.898 762.875C727.898 770 729.141 775.461 731.625 779.258C734.109 783.055 737.719 784.953 742.453 784.953C748.734 784.953 753.164 782.305 755.742 777.008V746.984C753.211 741.688 748.828 739.039 742.594 739.039C732.797 739.039 727.898 746.984 727.898 762.875ZM813.328 800H792.938V723.922H813.328V800ZM791.742 704.234C791.742 701.188 792.75 698.68 794.766 696.711C796.828 694.742 799.617 693.758 803.133 693.758C806.602 693.758 809.367 694.742 811.43 696.711C813.492 698.68 814.523 701.188 814.523 704.234C814.523 707.328 813.469 709.859 811.359 711.828C809.297 713.797 806.555 714.781 803.133 714.781C799.711 714.781 796.945 713.797 794.836 711.828C792.773 709.859 791.742 707.328 791.742 704.234ZM826.969 761.258C826.969 753.711 828.422 746.984 831.328 741.078C834.234 735.172 838.406 730.602 843.844 727.367C849.328 724.133 855.68 722.516 862.898 722.516C873.164 722.516 881.531 725.656 888 731.938C894.516 738.219 898.148 746.75 898.898 757.531L899.039 762.734C899.039 774.406 895.781 783.781 889.266 790.859C882.75 797.891 874.008 801.406 863.039 801.406C852.07 801.406 843.305 797.891 836.742 790.859C830.227 783.828 826.969 774.266 826.969 762.172V761.258ZM847.289 762.734C847.289 769.953 848.648 775.484 851.367 779.328C854.086 783.125 857.977 785.023 863.039 785.023C867.961 785.023 871.805 783.148 874.57 779.398C877.336 775.602 878.719 769.555 878.719 761.258C878.719 754.18 877.336 748.695 874.57 744.805C871.805 740.914 867.914 738.969 862.898 738.969C857.93 738.969 854.086 740.914 851.367 744.805C848.648 748.648 847.289 754.625 847.289 762.734Z" fill="black"/>
<g clip-path="url(#clip0)">
<path d="M658.655 321.654H359.988C342.345 321.654 327.988 336.011 327.988 353.654V374.987C327.988 451.104 370.036 520.139 437.705 555.147C442.932 557.835 449.374 555.808 452.084 550.56C454.772 545.333 452.745 538.891 447.497 536.181C386.953 504.864 349.321 443.104 349.321 374.986V353.653C349.321 347.765 354.1 342.986 359.988 342.986H658.655C664.543 342.986 669.322 347.765 669.322 353.653V374.986C669.322 443.103 631.69 504.863 571.125 536.159C565.877 538.868 563.85 545.311 566.538 550.538C568.437 554.207 572.17 556.319 576.031 556.319C577.695 556.319 579.359 555.935 580.916 555.124C648.607 520.137 690.655 451.124 690.655 374.985V353.652C690.655 336.011 676.297 321.654 658.655 321.654Z" fill="black"/>
<path d="M753.865 541.558C752.201 537.569 748.318 534.966 744.009 534.966H274.676C270.367 534.966 266.484 537.569 264.82 541.558C263.156 545.547 264.073 550.134 267.124 553.185L291.039 577.121C305.162 591.222 323.892 598.988 343.839 598.988H674.804C694.751 598.988 713.503 591.223 727.647 577.121L751.562 553.185C754.612 550.134 755.529 545.547 753.865 541.558ZM712.543 562.038C702.474 572.107 689.055 577.654 674.826 577.654H343.839C329.61 577.654 316.191 572.107 306.122 562.038L300.405 556.321H718.26L712.543 562.038Z" fill="black"/>
<path d="M755.359 372.022C726.623 353.547 680.714 373.601 675.572 375.926C670.217 378.379 667.828 384.694 670.281 390.07C672.734 395.446 679.028 397.814 684.425 395.361C694.708 390.689 727.689 379.617 743.817 390.006C751.092 394.678 754.654 403.745 754.654 417.654C754.654 460.363 668.51 486.177 635.251 492.534L627.699 494.027C621.918 495.158 618.163 500.768 619.294 506.55C620.297 511.627 624.755 515.147 629.747 515.147C630.43 515.147 631.112 515.083 631.816 514.934L639.304 513.462C644.893 512.395 775.987 486.689 775.987 417.654C775.988 396.193 769.034 380.854 755.359 372.022Z" fill="black"/>
<path d="M592.372 232.31C609.716 210.635 609.716 176.694 592.372 155.019C588.681 150.411 582.004 149.643 577.375 153.355C572.767 157.046 572.02 163.744 575.711 168.352C586.698 182.069 586.698 205.259 575.69 219.019C558.325 240.694 558.325 274.635 575.69 296.31C577.802 298.955 580.895 300.321 584.031 300.321C586.356 300.321 588.724 299.553 590.687 297.974C595.295 294.283 596.042 287.563 592.351 282.977C581.343 269.259 581.343 246.07 592.372 232.31Z" fill="black"/>
<path d="M528.287 232.31C545.652 210.635 545.652 176.694 528.287 155.019C524.618 150.411 517.898 149.664 513.29 153.355C508.682 157.046 507.935 163.766 511.626 168.352C522.634 182.069 522.634 205.259 511.605 219.019C494.261 240.694 494.261 274.635 511.605 296.31C513.717 298.955 516.81 300.321 519.946 300.321C522.271 300.321 524.618 299.553 526.602 297.974C531.21 294.283 531.957 287.585 528.266 282.977C517.279 269.259 517.279 246.07 528.287 232.31Z" fill="black"/>
<path d="M464.372 232.331C481.716 210.656 481.716 176.715 464.372 155.04C460.703 150.432 454.004 149.664 449.375 153.376C444.788 157.045 444.042 163.765 447.711 168.352C458.698 182.069 458.698 205.259 447.69 219.019C430.325 240.694 430.325 274.635 447.69 296.31C449.802 298.955 452.895 300.321 456.031 300.321C458.356 300.321 460.724 299.553 462.687 297.996C467.295 294.305 468.042 287.585 464.351 282.999C453.343 269.259 453.343 246.091 464.372 232.331Z" fill="black"/>
</g>
<defs>
<clipPath id="clip0">
<rect width="511.988" height="511.988" fill="white" transform="translate(264 119)"/>
</clipPath>
</defs>
</svg>
